<svg id="Layer_1" data-name="Layer 1" xmlns="http://www.w3.org/2000/svg" viewBox="0 0 640 480"><defs><style>.cls-1,.cls-2,.cls-3{fill:none;stroke:#000;stroke-miterlimit:10;}.cls-1,.cls-3{stroke-width:14px;}.cls-2{stroke-width:3px;}.cls-3{stroke-linecap:round;}</style></defs><path class="cls-1" d="M372,112.23V240.75a5,5,0,0,1-5,5H328.68a5,5,0,0,0,5-5V143a5,5,0,0,0-5-5H305.3V112.23a5,5,0,0,1,5-5H367A5,5,0,0,1,372,112.23Z"/><path class="cls-1" d="M333.68,143v97.78a5,5,0,0,1-5,5H165.14a5,5,0,0,1-5-5V143a5,5,0,0,1,5-5H328.68A5,5,0,0,1,333.68,143Z"/><circle class="cls-2" cx="353.91" cy="129.63" r="4.47"/><line class="cls-3" x1="160.14" y1="266.15" x2="371.03" y2="266.15"/></svg>